<svg width="12" height="12" viewBox="0 0 12 12" fill="none" xmlns="http://www.w3.org/2000/svg">
<path d="M3.29563 12C2.52274 12 1.74984 11.7059 1.16146 11.1175C-0.0152067 9.94057 -0.0150758 8.02599 1.16181 6.84935L7.36621 0.644945C8.22632 -0.215047 9.62558 -0.214916 10.4854 0.644945C10.9067 1.06615 11.1362 1.62014 11.1362 2.20901C11.1362 2.79787 10.9066 3.35185 10.4897 3.76856L4.76513 9.49265L4.68919 9.5605C4.2033 10.0396 3.41831 10.0375 2.9348 9.55421L2.92341 9.5426C2.69086 9.31014 2.56118 8.99739 2.56118 8.66504C2.56118 8.33261 2.69087 8.01981 2.92614 7.78465L5.89978 4.8109C6.01557 4.69496 6.2034 4.69496 6.31924 4.8109C6.43516 4.9267 6.43516 5.11452 6.31924 5.23032L3.3457 8.2042C3.22242 8.32748 3.15455 8.49122 3.15455 8.66517C3.15455 8.8391 3.22242 9.00284 3.3457 9.12606L3.35708 9.13771C3.60838 9.389 4.022 9.38894 4.27604 9.1349L10.0702 3.34921C10.3751 3.0444 10.5429 2.63956 10.5429 2.2091C10.5429 1.77865 10.3751 1.37381 10.0702 1.06899C9.43725 0.435869 8.41447 0.435869 7.78562 1.06461L1.58124 7.26875C0.63571 8.21417 0.635579 9.75258 1.58088 10.6979C2.52654 11.6433 4.06497 11.6433 5.01025 10.6979L11.2146 4.49337C11.3305 4.37743 11.5182 4.37743 11.634 4.49337C11.7499 4.60917 11.7499 4.79699 11.634 4.91281L5.42969 11.1173C4.84145 11.7057 4.06852 12 3.29563 12Z" fill="black"/>
</svg>
