<svg width="37" height="37" viewBox="0 0 37 37" fill="none" xmlns="http://www.w3.org/2000/svg">
<path d="M36.6077 34.6813L28.0242 26.0974H27.9317C30.5774 22.9778 31.9144 18.956 31.663 14.8732C31.4116 10.7905 29.5913 6.96309 26.5829 4.19166C23.5745 1.42024 19.6111 -0.080514 15.5216 0.00333335C11.4322 0.0871807 7.5336 1.74913 4.64132 4.64154C1.74905 7.53395 0.0871766 11.4327 0.00333319 15.5224C-0.0805102 19.612 1.42017 23.5756 4.19147 26.5842C6.96276 29.5927 10.79 31.413 14.8725 31.6644C18.9551 31.9158 22.9767 30.5788 26.0962 27.933C26.0962 27.933 26.0962 27.9991 26.0962 28.0255L34.6797 36.6094C34.8024 36.7331 34.9485 36.8314 35.1094 36.8984C35.2703 36.9655 35.4429 37 35.6173 37C35.7916 37 35.9642 36.9655 36.1251 36.8984C36.286 36.8314 36.4321 36.7331 36.5548 36.6094C36.6902 36.4895 36.7996 36.3431 36.876 36.1792C36.9525 36.0154 36.9946 35.8376 36.9995 35.6568C37.0045 35.476 36.9722 35.2962 36.9048 35.1284C36.8374 34.9606 36.7363 34.8084 36.6077 34.6813ZM15.862 29.0159C13.2502 29.0159 10.6971 28.2414 8.52549 26.7903C6.35388 25.3392 4.66131 23.2767 3.66182 20.8636C2.66234 18.4506 2.40083 15.7953 2.91036 13.2336C3.41989 10.6718 4.67759 8.31876 6.52439 6.47187C8.3712 4.62498 10.7242 3.36723 13.2858 2.85767C15.8474 2.34812 18.5025 2.60964 20.9155 3.60917C23.3285 4.6087 25.3909 6.30135 26.8419 8.47306C28.2929 10.6448 29.0674 13.198 29.0674 15.8099C29.0674 17.5442 28.7258 19.2614 28.0622 20.8636C27.3986 22.4659 26.4259 23.9217 25.1996 25.148C23.9734 26.3743 22.5176 27.347 20.9155 28.0107C19.3133 28.6743 17.5962 29.0159 15.862 29.0159Z" fill="black"/>
</svg>
